<svg version="1" xmlns="http://www.w3.org/2000/svg" width="416" height="416" viewBox="0 0 312.000000 312.000000"><path d="M144.8 20.5c-.2.2-2.5.5-5.3.9-2.7.3-5.7.7-6.5.9-.8.2-3.4.8-5.8 1.2-2.3.4-4.5 1.2-4.8 1.6-.3.5-1 .7-1.5.3-.5-.3-1.5-.1-2.2.4-.7.5-2.9 1.5-5 2.2-15.5 5-36.2 20.5-47.6 35.8-9.4 12.5-18 32.2-19.6 45.1-.4 3-.9 6.3-1.1 7.5-.7 3.5-.7 17.8 0 22.6 1.7 11.1 2.5 14.5 5.4 23.4 2.1 6.7 7 11.2 12.3 11.4 7.8.3 13.7-4.7 14.3-12.1.1-1.8-.6-5.7-1.7-8.7-2-5.7-2.3-7.1-3.6-15.2-.8-4.6-.6-18.7.3-23.8C74.2 102.8 81 87.5 88 78.6c2.2-2.9 15-15.7 15-15 0 .3 1.5-.6 3.3-2 8.1-6.2 25.7-13 37.2-14.3 27.5-3.2 53.3 5.8 73.3 25.5 4.8 4.7 8.5 8.6 8.3 8.7-.3 0 .7 1.8 2.1 4 6.4 10.1 11.3 22.2 12.4 30.5.3 1.9.7 4.6 1 6 .6 3.3.6 13.7-.1 17.5-.3 1.6-.8 4.6-1.1 6.5-3 18.4-16.6 39.2-32.6 49.8-2.1 1.3-3.5 2.9-3.1 3.5.3.6.1.7-.5.3-.6-.4-1.6.4-2.3 1.6-.7 1.3-1.1 2.3-1 2.3.1 0-.1.8-.4 1.8-1.7 4.3 3.6 15.1 7.7 15.5 7.8.8 9.1.5 15.6-3.8 6.6-4.4 23.2-20.5 23.2-22.5 0-.7.7-1.6 1.6-1.9.8-.3 1.2-1 .9-1.6-.3-.5-.1-1 .5-1s1.6-1.2 2.2-2.7c.7-1.6 1.8-3.5 2.5-4.4 2.2-2.7 8.3-17.9 10.4-25.9 4.9-18.9 4.4-39.1-1.5-57.5-.1-.6-.6-2.4-1.1-4C259.8 89 251.4 73 246 65.9c-3.2-4.1-13-15-15-16.5-.8-.7-2.6-2.2-4-3.4-11.1-9.8-34.1-20.7-49.5-23.4-1.6-.3-4.1-.8-5.5-1.2-2.4-.5-26.7-1.3-27.2-.9z"/><path d="M148.6 59.9c-.4.6-1.3.8-2.1.5-2.3-.9-16.1 3.4-23.8 7.3-8.3 4.3-23.9 19.1-27.2 25.8-1.1 2.2-2.3 4.2-2.7 4.5-1.2.9-4.8 11.1-4.3 12 .3.5 0 1-.5 1.2-1.7.5-3.8 23.3-2.5 26.6.4.9.9 3.5 1.1 5.7 1.4 13.4 14.6 35 22.7 37 6.2 1.6 14.3-1.9 17.1-7.3 1.1-2.3 1.4-6.3.7-11.7 0-.6-1.2-2.3-2.6-3.9-3.8-4.4-8.7-15-9.2-19.8-.3-2.4-.9-4.7-1.3-5.1-.4-.5-.4-2.5.2-4.4.5-1.9.7-4.1.4-4.9-.3-.7-.1-1.6.4-1.9.6-.4 1-1.4 1-2.4 0-4 6.2-14.1 12.1-19.5 5.7-5.4 13.3-9.6 17-9.6 1 0 2-.4 2.4-1 .3-.5 1.2-.7 1.9-.4.8.3 3 .1 5-.4 2.4-.7 3.8-.7 4.2 0 .4.5 1.9.8 3.5.6 1.6-.3 2.9-.1 2.9.4 0 .4.8.8 1.8.8 2.9 0 11.4 4.5 16.9 8.8 6.6 5.3 12.1 15.8 13.8 26.7.6 4.3.8 7.8.3 8.1-.5.3-.7 1.1-.5 1.7.2.7-.2 3-1 5.2-3.9 10.9-1.8 18.6 6.1 22.4 3.7 1.7 7.9 2.2 9.4 1 .1-.1.5-.2 1-.3 1.9-.4 7-4.1 6.6-4.8-.3-.4-.1-.8.4-.8 1.7 0 5-10 5.7-17 .2-1.9.4-3.5.5-3.5.2 0 .3-3.5.4-7.8.1-4.2-.1-7.7-.5-7.7-.3 0-.5-1.2-.4-2.8.1-1.5-.3-3.8-.8-5.2-.5-1.4-1-3.2-1.1-4-.1-.8-.5-2.3-.9-3.3-1.7-4.4-2-5.2-1.9-6 .1-.4-.3-.7-1-.7-.6 0-.8-.3-.5-.7.4-.3-.5-2.1-1.9-4-1.4-1.8-2.2-3.3-1.9-3.3.3 0 .1-.6-.5-1.3-.5-.6-2.8-3.5-5.1-6.4-6.5-8.4-24.5-20.5-32-21.5-1.3-.2-2.9-.7-3.5-1-2.9-1.9-24.9-3.4-25.8-1.9z"/><path d="M151.7 103.1c-8.7 2-16.9 8.9-19.4 16.4-1.1 3.4-1.4 14.4-.5 16 .4.5.7 1.5.8 2.1.3 1.8 3.5 6.4 4.5 6.4.5 0 .8.3.7.7-.4 1.5 1.3 5.3 2.3 5.3.6 0 .8.4.5.9-.4.5-.1 2.2.5 3.8 1.2 3 1.5 11.8.5 14.3-.3.8-.7 2.6-.8 4-.2 1.4-.9 3.1-1.6 3.8-.7.8-1 1.8-.7 2.3.4.5.2.9-.4.9-.5 0-2.4 2.4-4.2 5.2-5.1 8.5-12.5 14.3-19.7 15.5-1.2.2-3.2.7-4.3 1.2-1.2.4-4.9.4-8.3-.1-6.5-.9-16.6.7-16.6 2.5 0 .6-.3.7-.6.4-1.5-1.5-11.2 8-11.8 11.5-.1.7-.5 1.9-1 2.6-1.6 2.7-1.3 13.1.5 17.2 1 2.2 1.9 4.4 2 4.8.8 2.3 10 9.3 14 10.6 5.4 1.8 10.5 2.1 11.4.6.3-.5 1.2-.7 1.9-.4 3.6 1.4 12.2-5.5 18.4-14.7 2.8-4.1 5.9-7.3 11.8-11.9 1.9-1.5 4.6-2.1 9.3-2.4 1.6-.1 2.5.5 2.8 1.9.8 4.3.5 12.1-.6 14.7-.6 1.6-.8 2.8-.6 2.8.5 0-2.1 4.9-5.5 10.5-7.2 11.7-3.4 27 8.4 33.9 2.5 1.5 5.1 2.4 5.6 2.1.6-.3 1-.2 1 .3 0 1.8 11.4.5 16.2-1.7 4.8-2.3 11.8-9.7 11.8-12.5 0-.8.4-1.7.9-2 .4-.3.8-3.4.7-6.8-.1-4.5-.8-7.6-2.5-10.8-8.7-16.4-9.3-19.1-7.6-30 .8-5.1 1.7-7.1 5.8-12.3 6.4-8.2 7.1-20.6 1.8-29-3.6-5.7-6.5-11.2-6.6-12.7-.1-.8-.5-3.3-.9-5.5-.8-4.4.5-11.6 3.1-17.3.9-2.1 1.5-4 1.5-4.5-.1-.4.2-.7.6-.7.4 0 1.6-1.4 2.6-3.1 3.3-5.5 2.8-22.9-.6-22.9-.5 0-.7-.4-.3-1 1.5-2.4-11-11.8-16.8-12.6-1.2-.2-3.1-.5-4.2-.7-1.1-.2-3.7 0-5.8.4z"/></svg>